<svg id="Layer_2" data-name="Layer 2" xmlns="http://www.w3.org/2000/svg" width="504.356" height="284.736" viewBox="0 0 504.356 284.736">
  <g id="Layer_1" data-name="Layer 1" transform="translate(0 0)">
    <path id="Caminho_25" data-name="Caminho 25" d="M97.954,207.919a133.484,133.484,0,0,1-66.98-57.576C12.707,118.035,10.193,80.026,23.541,41.65a109.517,109.517,0,0,1,7.888-18.982,2.644,2.644,0,0,1,3.51-1.083,2.6,2.6,0,0,1,1.148,3.467,180.511,180.511,0,0,0-7.259,17.14c-8.668,26.415-9.795,61.8,5.222,94.024,11.355,24.313,30.662,43.014,56.232,55.82,6.306,3.142,10.835,9.9,7.671,15.884m273.165,0a133.4,133.4,0,0,0,66.98-57.576c18.332-32.309,20.781-70.317,7.411-108.694A109.511,109.511,0,0,0,437.6,22.667a2.622,2.622,0,0,0-4.659,2.384A180.5,180.5,0,0,1,440.2,42.191c8.668,26.415,9.795,61.8-5.2,94.024-11.333,24.313-30.337,43.187-56.189,55.82-1.734.845-9.708,6.241-7.693,15.884" transform="translate(17.631 24.854)" fill="#d6a529"/>
    <path id="Caminho_26" data-name="Caminho 26" d="M417.187,105.693c6.176-18.246-9.816-38.723-9.816-38.723s-26.7,35.711.737,55.062a53,53,0,0,0,9.079-16.339m8.971,24.291c16.36,29.34,54.694,6.5,54.694,6.5s-18.679-18.094-37.466-13.868a53.177,53.177,0,0,0-17.227,7.3M397.988,153.6c13.37,37.12,54.174,10.076,54.174,10.076s-16.837-23.165-36.123-18.592A52.57,52.57,0,0,0,398.01,153.6M44.495,122.682C25.707,118.348,7.05,136.551,7.05,136.551s38.333,22.775,54.672-6.5a53.177,53.177,0,0,0-17.336-7.3M71.95,145.153c-19.286-4.572-36.123,18.592-36.123,18.592S76.609,190.789,90,153.669a52.332,52.332,0,0,0-18.051-8.516m7.844-23.121c27.434-19.351.823-55,.823-55S64.626,87.513,70.8,105.758A53.285,53.285,0,0,0,79.9,122.1" transform="translate(8.227 78.15)" fill="#b3852d"/>
    <path id="Caminho_27" data-name="Caminho 27" d="M447.04,99.282c0-15.8-17.791-27.5-17.791-27.5s-11.311,34.671,15.039,42.58A43.967,43.967,0,0,0,447.04,99.2m10.38-34.974c-1.734-13.565-20.153-19.611-20.153-19.611s-7.086,32.461,19.156,33.349a36.124,36.124,0,0,0,1-13.565m7.519,47.933c24.963,11.506,39.4-22.038,39.4-22.038s-21.063-2.969-31.507,8.884a43.708,43.708,0,0,0-7.888,13.153m-9.881,21c19.5,23.035,45.788-5.656,45.788-5.656s-19.026-12.373-33.371-4.594a43.793,43.793,0,0,0-12.417,10.25M474.972,83.16c24.942,8.256,29.384-24.595,29.384-24.595s-19.372-.65-25.657,11.485a36.839,36.839,0,0,0-3.727,13m-414.9,31.312C86.4,106.5,75.085,71.783,75.085,71.783s-17.769,11.7-17.769,27.5a43.967,43.967,0,0,0,2.752,15.169M47.911,77.959C74.174,77.071,67.175,44.7,67.175,44.7S48.756,50.742,47,64.308a36.665,36.665,0,0,0,.91,13.652m-16.4,21.214C21.084,87.234,0,90.2,0,90.2s14.454,33.544,39.417,22.038a44.076,44.076,0,0,0-7.909-13.153m5.331,23.988c-14.367-7.779-33.371,4.594-33.371,4.594s26.22,28.69,45.787,5.656a44.184,44.184,0,0,0-12.417-10.25M25.657,70.05C19.372,57.915,0,58.565,0,58.565S4.442,91.416,29.384,83.16a36.253,36.253,0,0,0-3.727-13" transform="translate(0 52.057)" fill="#d6a529"/>
    <path id="Caminho_28" data-name="Caminho 28" d="M56.347,46.35c17.9,8.776,24.942-15.472,24.942-15.472s-14.562-2.535-20.651,6A28.17,28.17,0,0,0,56.3,46.35M41.287,37.682C42.738,27.346,30.452,19.09,30.452,19.09s-11.571,22.471,7.389,28.5a27.628,27.628,0,0,0,3.445-9.816m18.462-9.231C67.377,21.387,63.043,7.28,63.043,7.28S40.008,17.508,50.951,34a27.564,27.564,0,0,0,8.841-5.461m380.385,6.306c-6.327-8.3-20.8-5.4-20.8-5.4s7.714,24.031,25.353,14.735a27.845,27.845,0,0,0-4.551-9.34m23.966,12.72c18.982-6.024,7.324-28.409,7.324-28.409s-12.222,8.256-10.835,18.592a27.911,27.911,0,0,0,3.467,9.816m-13-13.587c10.986-16.469-12.156-26.7-12.156-26.7s-4.334,14.107,3.272,21.258A27.8,27.8,0,0,0,451.056,34m21.669,38.745c23.836-5.006,14.215-35.083,14.215-35.083s-16.209,8.8-16.469,22.146a36.211,36.211,0,0,0,2.167,13m3.38,26c26,4.009,24.92-29.124,24.92-29.124s-19.221,2.557-23.4,15.58a36.557,36.557,0,0,0-1.517,13.543m-22.8-29.3c-4.486-12.59-22.645-15.775-22.645-15.775s.412,31.594,24.638,28.755a36.447,36.447,0,0,0-1.994-13M46.812,82.516C71.039,85.355,71.45,53.761,71.45,53.761S53.27,57.011,48.784,69.515a36.123,36.123,0,0,0-1.972,13M24.428,85.225C20.246,72.2,1,69.645,1,69.645s-1.04,33.133,24.92,29.124a36.275,36.275,0,0,0-1.5-13.543m7.129-25.418C31.34,46.458,15.088,37.661,15.088,37.661S5.445,67.738,29.325,72.743a36.491,36.491,0,0,0,2.167-13" transform="translate(1.164 8.495)" fill="#f2c75c"/>
    <path id="Caminho_29" data-name="Caminho 29" d="M115.97,82.437C107,53.7,104.42,33.9,101.43,18.057c38.008-1.257,103.84,8.776,133.224,24.66-6.5,24.465-12.027,49.645-12.027,49.645s-17.552-9.968-106.657-9.968" transform="translate(118.363 20.948)" fill="#b3852d"/>
    <path id="Caminho_30" data-name="Caminho 30" d="M317.887,113.14a10.835,10.835,0,0,0,6.046,10.575,4.616,4.616,0,0,1,.953,7.324c-3.965,4.009-39.59,21.669-134.827,21.669s-131.165-17.986-135.2-22.059a4.789,4.789,0,0,1,1.17-7.541,11.29,11.29,0,0,0,6.241-9.968s33.414,17.6,127.611,17.6,128-17.6,128-17.6" transform="translate(62.454 132.028)" fill="#d6a529"/>
    <path id="Caminho_31" data-name="Caminho 31" d="M196.622,92.4c-6.5-59.288-15.06-92.4-15.06-92.4C139.913,0,64.287,34.3,35.77,73.849c28.69,31.551,49.84,109.6,48.54,163.214,0,0,31.941,14.345,125.986,14.345,89.126,0,120.005-12.85,126.506-14.345-.5-51.14,13-82.756,27.607-108.564C323.237,108.521,283.972,93.98,196.6,92.4M79.607,98.639C76.27,90.492,71.85,80.957,77.7,73.849c3.51-4.334,15.58-8.949,24.27,7.389a90.448,90.448,0,0,1,10.141,30.576s-9.6,3.207-23.836,13.608c-4.052-13.132-5.764-19.5-8.668-26.783m54.022,118.25H106.2c-.975-11.42-3.554-28.777-5.071-37.315-5.006-28.17,27.434-34.671,30.727-6.089a405.545,405.545,0,0,1,1.8,43.339M128.472,72.766c-2.947-11.03-1.517-20.261,7.888-23.706,12.027-4.334,19.7,3.6,23.035,14.28s4.572,24.183,5.374,33.046a111.835,111.835,0,0,0-29.492,7c-2.037-8.928-4.941-23.685-6.8-30.619m69.342,144.123H162.341s-.91-40.413-1.43-51.422c-.282-6.024,2.3-20.629,18.311-20.629,15.45,0,18.961,11.441,18.766,26.307,0,7.346-.13,45.744-.13,45.744m62.408-51.422c-.52,11.008-1.43,51.422-1.43,51.422H223.319s0-38.4-.13-45.744c-.2-14.865,3.315-26.307,18.766-26.307,16.014,0,18.614,14.605,18.311,20.629m59.873,14.107c-1.517,8.538-4.074,25.895-5.071,37.315H287.634a402.779,402.779,0,0,1,1.777-43.339c3.294-28.647,35.733-22.038,30.727,6.089" transform="translate(41.742 0)" fill="#d6a529"/>
  </g>
</svg>
