<svg xmlns="http://www.w3.org/2000/svg" width="655.635" height="154.635" viewBox="0 0 655.635 154.635">
  <g id="Grupo_2" data-name="Grupo 2" transform="translate(-118.003 -401.729)">
    <path id="Caminho_46" data-name="Caminho 46" d="M172.25,521.979a67.1,67.1,0,0,1-33.7-28.967c-9.219-16.256-10.458-35.373-3.725-54.683a54.632,54.632,0,0,1,3.978-9.549,1.315,1.315,0,0,1,2.343,1.2,90.5,90.5,0,0,0-3.652,8.62c-4.33,13.295-4.928,31.1,2.622,47.309,5.7,12.234,15.357,21.642,28.267,28.083,3.175,1.584,5.442,4.986,3.869,7.99m137.434,0a67.092,67.092,0,0,0,33.7-28.967c9.219-16.256,10.458-35.373,3.726-54.683a54.835,54.835,0,0,0-3.978-9.549,1.315,1.315,0,0,0-2.343,1.2,90.155,90.155,0,0,1,3.652,8.62c4.33,13.295,4.927,31.1-2.622,47.309-5.7,12.232-15.309,21.731-28.264,28.082-.876.43-4.886,3.139-3.872,7.992" transform="translate(3.913 8.214)" fill="#d19217"/>
    <path id="Caminho_47" data-name="Caminho 47" d="M330.223,485.53c3.107-9.181-4.945-19.479-4.945-19.479s-13.434,17.968.369,27.707a26.859,26.859,0,0,0,4.576-8.228m4.511,12.228c8.227,14.755,27.514,3.295,27.514,3.295s-9.391-9.095-18.848-6.975a26.851,26.851,0,0,0-8.666,3.68M320.52,509.673c6.725,18.668,27.243,5.068,27.243,5.068s-8.473-11.66-18.174-9.351a26.335,26.335,0,0,0-9.069,4.282m-177.812-15.6c-9.457-2.12-18.847,6.975-18.847,6.975s19.286,11.46,27.513-3.295a26.851,26.851,0,0,0-8.666-3.68m13.812,11.313c-9.7-2.31-18.175,9.351-18.175,9.351s20.519,13.6,27.244-5.068a26.335,26.335,0,0,0-9.069-4.282m3.941-11.633c13.8-9.739.367-27.707.367-27.707s-8.051,10.3-4.942,19.479a26.841,26.841,0,0,0,4.575,8.228" transform="translate(1.826 20.045)" fill="#a7701d"/>
    <path id="Caminho_48" data-name="Caminho 48" d="M342.921,474.956c0-7.945-8.944-13.835-8.944-13.835s-5.69,17.474,7.56,21.424a22.052,22.052,0,0,0,1.384-7.589m5.228-17.594c-.875-6.824-10.143-9.866-10.143-9.866s-3.568,16.293,9.641,16.7a18.3,18.3,0,0,0,.5-6.832m3.78,24.116c12.555,5.787,19.828-11.089,19.828-11.089s-10.6-1.486-15.855,4.477a22.012,22.012,0,0,0-3.973,6.612m-4.983,10.615c9.841,11.582,23.036-2.846,23.036-2.846s-9.57-6.226-16.792-2.311a22.13,22.13,0,0,0-6.245,5.157m10.026-25.245c12.544,4.151,14.785-12.378,14.785-12.378s-9.749-.321-12.913,5.788a18.323,18.323,0,0,0-1.872,6.59m-208.749,15.7c13.249-3.951,7.559-21.424,7.559-21.424s-8.941,5.891-8.944,13.835a22.034,22.034,0,0,0,1.385,7.589m-6.111-18.351c13.208-.405,9.641-16.7,9.641-16.7s-9.267,3.042-10.143,9.866a18.3,18.3,0,0,0,.5,6.832m-8.255,10.672C128.6,468.9,118,470.389,118,470.389s7.27,16.875,19.827,11.089a22.013,22.013,0,0,0-3.973-6.612m2.711,12.07c-7.222-3.915-16.793,2.311-16.793,2.311s13.2,14.428,23.036,2.846a22.113,22.113,0,0,0-6.243-5.157m-5.653-26.677C127.751,454.149,118,454.47,118,454.47s2.239,16.529,14.783,12.378a18.324,18.324,0,0,0-1.872-6.59" transform="translate(0 14.263)" fill="#d19217"/>
    <path id="Caminho_49" data-name="Caminho 49" d="M146.681,436.094c9,4.416,12.542-7.785,12.542-7.785s-7.322-1.247-10.392,3.022a14.02,14.02,0,0,0-2.15,4.763m-7.559-4.315c.728-5.207-5.429-9.361-5.429-9.361s-5.867,11.268,3.695,14.292a14.019,14.019,0,0,0,1.734-4.93m9.29-4.646c3.835-3.6,1.651-10.7,1.651-10.7s-11.641,5.089-6.1,13.444a14.014,14.014,0,0,0,4.445-2.748M339.8,430.317c-3.193-4.18-10.475-2.724-10.475-2.724s3.886,12.095,12.76,7.423a14.019,14.019,0,0,0-2.285-4.7m12.049,6.392c9.561-3.023,3.695-14.292,3.695-14.292s-6.157,4.154-5.429,9.361a14.019,14.019,0,0,0,1.734,4.93m-6.579-6.828c5.543-8.355-6.1-13.444-6.1-13.444s-2.185,7.1,1.651,10.7a14.014,14.014,0,0,0,4.445,2.748m10.891,19.494c12.011-2.517,7.152-17.655,7.152-17.655s-8.157,4.425-8.283,11.146a18.18,18.18,0,0,0,1.131,6.508m1.7,13.086c13.059,2.019,12.533-14.654,12.533-14.654s-9.668,1.3-11.777,7.845a18.3,18.3,0,0,0-.755,6.809m-11.5-14.673c-2.257-6.331-11.4-7.934-11.4-7.934s.207,15.9,12.395,14.463a18.182,18.182,0,0,0-1-6.529M141.88,454.316c12.189,1.434,12.4-14.463,12.4-14.463s-9.141,1.6-11.4,7.934a18.216,18.216,0,0,0-1,6.529m-11.262,1.335c-2.109-6.549-11.777-7.845-11.777-7.845s-.527,16.672,12.533,14.654a18.3,18.3,0,0,0-.756-6.809m3.59-12.786c-.126-6.721-8.284-11.146-8.284-11.146s-4.858,15.138,7.154,17.655a18.18,18.18,0,0,0,1.131-6.508" transform="translate(0.26 4.583)" fill="#f5b945"/>
    <path id="Caminho_50" data-name="Caminho 50" d="M209.624,457.748c-4.533-14.456-5.807-24.427-7.308-32.376,19.116-.628,52.246,4.416,67.023,12.405-3.257,12.316-6.045,24.979-6.045,24.979s-8.834-5.008-53.669-5.008" transform="translate(26.275 7.351)" fill="#a7701d"/>
    <path id="Caminho_51" data-name="Caminho 51" d="M295.507,504.431a5.376,5.376,0,0,0,3.043,5.312,2.323,2.323,0,0,1,.471,3.69c-1.988,2.015-19.918,10.926-67.832,10.926s-66-9.071-68.024-11.127a2.412,2.412,0,0,1,.586-3.793,5.664,5.664,0,0,0,3.14-5.008s16.816,8.844,64.212,8.844,64.4-8.844,64.4-8.844" transform="translate(13.862 32.005)" fill="#d19217"/>
    <path id="Caminho_52" data-name="Caminho 52" d="M228.661,456.871c-3.284-29.827-7.571-46.488-7.571-46.488-20.952,0-59,17.261-73.358,37.159,14.441,15.868,25.1,55.142,24.432,82.112,0,0,16.068,7.219,63.387,7.219,44.836,0,60.369-6.464,63.644-7.219-.253-25.724,6.548-41.634,13.885-54.614-20.743-10.056-40.46-17.377-84.419-18.169m-58.856,3.137c-1.682-4.1-3.9-8.889-.961-12.467,1.765-2.147,7.84-4.509,12.213,3.718a45.423,45.423,0,0,1,5.045,15.379s-4.79,1.612-11.9,6.845c-2.033-6.609-2.895-9.823-4.391-13.476m27.173,59.5H183.172c-.5-5.742-1.789-14.477-2.552-18.767-2.521-14.154,13.8-17.48,15.459-3.072a204.63,204.63,0,0,1,.9,21.839m-2.6-72.515c-1.489-5.54-.765-10.194,3.968-11.927,6.044-2.214,9.907,1.817,11.586,7.189s2.3,12.168,2.706,16.63c-9.477,1.127-14.841,3.52-14.841,3.52-1.027-4.491-2.479-11.921-3.418-15.413M229.289,519.5H211.42s-.462-20.329-.723-25.866c-.144-3.036,1.158-10.382,9.218-10.382,7.775,0,9.541,5.761,9.436,13.232-.051,3.695-.062,23.015-.062,23.015m31.4-25.866c-.261,5.536-.724,25.866-.724,25.866H242.1s-.009-19.32-.06-23.015c-.1-7.471,1.659-13.232,9.435-13.232,8.061,0,9.364,7.345,9.219,10.382m30.076,7.1c-.762,4.29-2.054,13.025-2.552,18.767h-13.8a204.465,204.465,0,0,1,.9-21.839c1.657-14.408,17.981-11.082,15.459,3.072" transform="translate(9.265 2.697)" fill="#d19217"/>
    <path id="Caminho_53" data-name="Caminho 53" d="M658.342,405.994c1.693-.45,2.172-1.565,2.057-2.457a2.07,2.07,0,0,0-2.034-1.809H635.708v59.189c0,9.322-3.545,13.3-11.851,13.3-9.229,0-13.916-3.3-13.916-21.331V413.862l.012-.261a7.786,7.786,0,0,1,5.9-7.606c1.293-.345,2.066-1.161,2.067-2.183a2.08,2.08,0,0,0-.8-1.617l.418-.466H540.157a2.068,2.068,0,0,0-2.034,1.809c-.118.892.361,2.007,2.055,2.457a7.787,7.787,0,0,1,5.9,7.606l.022.531h16.885v60.382a7.785,7.785,0,0,1-5.805,7.569,6.907,6.907,0,0,1-2.913.05l-.059-.016c-3.569-.952-4.706-3.812-5.926-7.748l-21.216-69.611a3.969,3.969,0,0,0-3.741-2.8,3.457,3.457,0,0,0-3.446,2.567L500.449,474.45c-1.205,3.889-2.335,6.717-5.9,7.667a6.849,6.849,0,0,1-3.1-.054,7.785,7.785,0,0,1-5.72-7.336V413.644a7.786,7.786,0,0,1,5.879-7.424c1.693-.45,2.173-1.565,2.057-2.457a2.069,2.069,0,0,0-2.034-1.809h-18.3v45.79l-20.7-45.466-.148-.324H359.131l-11.957,43.458-13.116-43.458H314.27a2.067,2.067,0,0,0-2.033,1.809c-.118.892.361,2.007,2.055,2.457,3.572.952,4.707,3.812,5.925,7.748l21.216,69.612a3.973,3.973,0,0,0,3.742,2.8h.056a3.526,3.526,0,0,0,3.391-2.568l19.429-69.927c1.221-3.938,2.356-6.792,5.889-7.667a6.3,6.3,0,0,1,3.246.056,7.781,7.781,0,0,1,5.729,7.417v60.92a7.785,7.785,0,0,1-5.888,7.5c-1.7.453-2.173,1.565-2.057,2.459a2.069,2.069,0,0,0,2.034,1.806H452.68V440.577l20.7,45.482.147.324h35.84l4.652-16.908h15.32l5.1,16.908h51.234a2.069,2.069,0,0,0,2.033-1.807c.117-.893-.362-2.005-2.055-2.458a7.783,7.783,0,0,1-5.9-7.583v-60.4h17.784v44.615c0,18.032,9.5,27.563,27.47,27.563,17.926,0,26.9-8.073,27.421-24.682l.05-.064,0-48.292a7.784,7.784,0,0,1,5.866-7.277M525.594,457.072h-8.161l3.893-14.146Zm-94-51.331.31.5a5.658,5.658,0,0,1,2.579.02,7.79,7.79,0,0,1,5.8,7.547v60.709h0a7.8,7.8,0,0,1-5.765,7.556l.151.533-.286-.5a5.605,5.605,0,0,1-2.6-.022,7.8,7.8,0,0,1-5.787-7.567l-.022-.531H399.685V452.53h20.978v-12.4H399.685V414.357H425.97l.022-.533a7.8,7.8,0,0,1,5.75-7.55ZM712.51,468.284c-2.053,11.826-12.021,17.721-30.469,18.022l-.2.03H659.929a2.07,2.07,0,0,1-2.034-1.809c-.117-.892.363-2.007,2.057-2.457a7.789,7.789,0,0,0,5.9-7.606l.021-.531H682.1c3.067-.068,11.187-.251,14.6-4.858,1.939-2.619,2.583-5.149,1.971-7.74-1.152-4.885-6.772-9.832-17.179-15.126L680,445.456c-8.867-4.47-18.916-9.534-20.641-22.291a17.751,17.751,0,0,1,4.108-13.742c4.246-4.883,11.093-7.4,20.355-7.47l.4-.14h20.917a2.068,2.068,0,0,1,2.033,1.809c.118.892-.362,2.005-2.055,2.457a7.792,7.792,0,0,0-5.9,7.606l-.021.531H684.219c-5.34,0-8.826,1.864-9.566,5.113-.99,4.347,2.854,9.832,8.943,12.757,30,14.417,30.8,25.35,28.914,36.2" transform="translate(60.525 0)" fill="#a7701d"/>
    <path id="Caminho_54" data-name="Caminho 54" d="M370.1,488.6v12.083h15.678v7.352H370.1V520.38h20.148v7.611h-29.93v-47h29.93V488.6Z" transform="translate(75.514 24.701)" fill="#d19217"/>
    <path id="Caminho_55" data-name="Caminho 55" d="M430.811,504.475a25.241,25.241,0,0,1-1.733,9.475,21.534,21.534,0,0,1-4.891,7.434,22.385,22.385,0,0,1-7.6,4.86,26.678,26.678,0,0,1-9.848,1.748H388.669v-47h18.074a26.622,26.622,0,0,1,9.848,1.75,22.241,22.241,0,0,1,7.6,4.874,21.755,21.755,0,0,1,4.891,7.433,25.036,25.036,0,0,1,1.733,9.427m-9.976,0a21.144,21.144,0,0,0-.972-6.639,13.98,13.98,0,0,0-2.786-4.988,12.17,12.17,0,0,0-4.422-3.143,15.084,15.084,0,0,0-5.912-1.1h-8.292v31.777h8.292a15.253,15.253,0,0,0,5.912-1.085,11.912,11.912,0,0,0,4.422-3.143,14.156,14.156,0,0,0,2.786-5,21.259,21.259,0,0,0,.972-6.674" transform="translate(84.349 24.701)" fill="#d19217"/>
    <rect id="Retângulo_26" data-name="Retângulo 26" width="9.782" height="47.001" transform="translate(522.319 505.692)" fill="#d19217"/>
    <path id="Caminho_56" data-name="Caminho 56" d="M475.429,488.83H461.693v39.162h-9.751V488.83H438.208v-7.84h37.22Z" transform="translate(99.787 24.701)" fill="#d19217"/>
    <path id="Caminho_57" data-name="Caminho 57" d="M516.086,504.6a25.872,25.872,0,0,1-1.733,9.557A22.08,22.08,0,0,1,501.866,526.8a27.41,27.41,0,0,1-19.693,0,22.787,22.787,0,0,1-7.613-5.037,22.269,22.269,0,0,1-4.908-7.613,27.152,27.152,0,0,1,0-19.095,22.285,22.285,0,0,1,4.908-7.6,22.768,22.768,0,0,1,7.613-5.038,27.39,27.39,0,0,1,19.693,0,22.166,22.166,0,0,1,12.488,12.665,25.653,25.653,0,0,1,1.733,9.507m-9.945,0a21.032,21.032,0,0,0-.971-6.624,14.044,14.044,0,0,0-2.8-4.989,12.081,12.081,0,0,0-4.437-3.141,16.7,16.7,0,0,0-11.84,0,12.068,12.068,0,0,0-4.454,3.141,14.079,14.079,0,0,0-2.8,4.989,23.138,23.138,0,0,0,0,13.28,13.9,13.9,0,0,0,2.8,4.972,12.14,12.14,0,0,0,4.454,3.127,16.7,16.7,0,0,0,11.84,0,12.153,12.153,0,0,0,4.437-3.127,13.865,13.865,0,0,0,2.8-4.972,21.139,21.139,0,0,0,.971-6.657" transform="translate(109.046 24.577)" fill="#d19217"/>
    <path id="Caminho_58" data-name="Caminho 58" d="M547.552,527.992h-8.777a3.816,3.816,0,0,1-3.564-1.878l-8.94-14.415a3.79,3.79,0,0,0-1.215-1.23,3.961,3.961,0,0,0-1.96-.39h-3.3v17.913h-9.718v-47h14.772a30.3,30.3,0,0,1,8.422,1.022A16.175,16.175,0,0,1,539,484.846a10.865,10.865,0,0,1,3.271,4.324,14.327,14.327,0,0,1,1.036,5.522,14.536,14.536,0,0,1-.664,4.423,13.029,13.029,0,0,1-1.928,3.806,13.859,13.859,0,0,1-3.109,3.044A16.054,16.054,0,0,1,533.4,508.1a9.437,9.437,0,0,1,1.75,1.246,8.646,8.646,0,0,1,1.459,1.734Zm-22.771-24.748a12.407,12.407,0,0,0,4.082-.6,7.7,7.7,0,0,0,2.819-1.653,6.439,6.439,0,0,0,1.619-2.478,9.016,9.016,0,0,0,.519-3.11,6.372,6.372,0,0,0-2.221-5.184q-2.219-1.845-6.752-1.845h-5.054v14.867Z" transform="translate(122.183 24.701)" fill="#d19217"/>
    <path id="Caminho_59" data-name="Caminho 59" d="M584.6,527.991h-7.547a3.309,3.309,0,0,1-2.057-.6,3.6,3.6,0,0,1-1.182-1.537l-3.175-8.973H551.917l-3.174,8.973a3.709,3.709,0,0,1-1.133,1.474,3.118,3.118,0,0,1-2.041.662h-7.611l18.367-47h9.943Zm-16.326-17.847-5.085-14.382q-.452-1.133-.955-2.656t-.956-3.3q-.452,1.814-.955,3.353t-.956,2.672l-5.054,14.318Z" transform="translate(130.872 24.7)" fill="#d19217"/>
  </g>
</svg>
