<svg xmlns="http://www.w3.org/2000/svg" width="420.906" height="357.368" viewBox="0 0 420.906 357.368">
  <g id="Layer_2" data-name="Layer 2" transform="translate(0.013)">
    <g id="Layer_1" data-name="Layer 1" transform="translate(-0.013 0)">
      <path id="Caminho_32" data-name="Caminho 32" d="M104.211,139.9a84.778,84.778,0,0,1-42.568-36.591c-11.637-20.534-13.207-44.689-4.71-69.079A70.7,70.7,0,0,1,61.96,22.168a1.663,1.663,0,0,1,2.961,1.515,114.712,114.712,0,0,0-4.614,10.893C54.8,51.364,54.082,73.853,63.626,94.332c7.189,15.452,19.391,27.337,35.7,35.476,4.021,2,6.886,6.294,4.889,10.095m173.606,0a84.778,84.778,0,0,0,42.568-36.591c11.651-20.534,13.207-44.689,4.71-69.079a69.6,69.6,0,0,0-5.027-12.064,1.666,1.666,0,0,0-2.961,1.515,114.72,114.72,0,0,1,4.613,10.893c5.509,16.788,6.225,39.277-3.305,59.755-7.2,15.452-19.349,27.447-35.71,35.476-1.1.537-6.17,3.966-4.889,10.095" transform="translate(19.462 8.033)" fill="#d6a529"/>
      <path id="Caminho_33" data-name="Caminho 33" d="M304.157,91.58c3.925-11.6-6.239-24.61-6.239-24.61s-16.967,22.7.468,34.994a33.685,33.685,0,0,0,5.77-10.384m5.7,15.438c10.4,18.647,34.76,4.132,34.76,4.132s-11.871-11.5-23.811-8.814a33.8,33.8,0,0,0-11.017,4.641m-17.9,15.052c8.5,23.591,34.429,6.4,34.429,6.4s-10.7-14.722-22.957-11.816a33.41,33.41,0,0,0-11.458,5.412M67.3,102.377c-11.94-2.754-23.8,8.814-23.8,8.814s24.362,14.474,34.746-4.132a33.8,33.8,0,0,0-11.017-4.641M84.677,116.7c-12.257-2.906-22.957,11.816-22.957,11.816s25.918,17.187,34.429-6.4A33.258,33.258,0,0,0,84.691,116.7m4.985-14.694c17.49-12.339.51-34.994.51-34.994S79.995,79.984,83.947,91.58a33.865,33.865,0,0,0,5.784,10.384" transform="translate(16.424 25.259)" fill="#b3852d"/>
      <path id="Caminho_34" data-name="Caminho 34" d="M320.56,79.356c0-10.04-11.307-17.476-11.307-17.476s-7.189,22.035,9.558,27.061a27.943,27.943,0,0,0,1.749-9.64m6.6-22.227c-1.1-8.621-12.808-12.463-12.808-12.463S309.887,65.24,326.523,65.8a22.957,22.957,0,0,0,.634-8.621m4.765,30.408c15.851,7.313,25.037-14.006,25.037-14.006s-13.386-1.887-20.024,5.646a27.777,27.777,0,0,0-5.013,8.359m-6.294,13.4c12.395,14.639,29.1-3.594,29.1-3.594s-12.092-7.864-21.208-2.92a27.833,27.833,0,0,0-7.891,6.514M338.284,69.11c15.851,5.247,18.674-15.631,18.674-15.631s-12.312-.413-16.306,7.3a23.411,23.411,0,0,0-2.369,8.263M74.625,88.941c16.733-5,9.544-27.061,9.544-27.061S72.876,69.316,72.876,79.356A27.943,27.943,0,0,0,74.625,89M66.9,65.8C83.59,65.3,79.087,44.72,79.087,44.72S67.381,48.562,66.266,57.184A23.3,23.3,0,0,0,66.9,65.8M56.488,79.232C49.85,71.7,36.464,73.586,36.464,73.586S45.649,94.9,61.514,87.591a28.012,28.012,0,0,0-5.027-8.359m3.429,15.245c-9.131-4.944-21.208,2.92-21.208,2.92s16.664,18.234,29.086,3.594a27.888,27.888,0,0,0-7.877-6.514m-7.161-33.7c-3.994-7.712-16.306-7.3-16.306-7.3S39.273,74.357,55.111,69.11a23.04,23.04,0,0,0-2.369-8.263" transform="translate(13.765 16.825)" fill="#d6a529"/>
      <path id="Caminho_35" data-name="Caminho 35" d="M72.634,32.114c11.375,5.578,15.851-9.833,15.851-9.833s-9.268-1.611-13.1,3.815a18.013,18.013,0,0,0-2.754,6.018M63.09,26.605c.923-6.569-6.886-11.816-6.886-11.816s-7.4,14.281,4.682,18.11a17.9,17.9,0,0,0,2.19-6.239M74.81,20.794C79.657,16.249,76.9,7.284,76.9,7.284s-14.708,6.5-7.712,16.98a17.518,17.518,0,0,0,5.619-3.47M316.558,24.8c-4.021-5.275-13.221-3.429-13.221-3.429s4.9,15.273,16.113,9.365a17.7,17.7,0,0,0-2.892-5.936m15.149,8.084c12.078-3.829,4.669-18.055,4.669-18.055s-7.767,5.247-6.886,11.816a17.9,17.9,0,0,0,2.19,6.239m-8.263-8.635c7-10.549-7.7-16.98-7.7-16.98s-2.754,8.965,2.08,13.51a17.517,17.517,0,0,0,5.619,3.47m13.772,24.624c15.149-3.181,9.034-22.3,9.034-22.3s-10.3,5.591-10.466,14.075a23.012,23.012,0,0,0,1.377,8.263m2.148,16.526c16.526,2.548,15.837-18.509,15.837-18.509s-12.215,1.625-14.887,9.9a23.412,23.412,0,0,0-.95,8.607M324.848,46.836c-2.851-8-14.391-10.026-14.391-10.026s.262,20.079,15.645,18.275a22.958,22.958,0,0,0-1.253-8.263M66.56,55.1c15.4,1.845,15.713-18.234,15.713-18.234s-11.61,2.024-14.46,9.971A22.957,22.957,0,0,0,66.56,55.1M52.334,56.821c-2.672-8.263-14.873-9.9-14.873-9.9s-.633,21.057,15.893,18.509a23.054,23.054,0,0,0-.95-8.607m4.531-16.154c-.22-8.483-10.466-14.075-10.466-14.075s-6.2,19.115,8.965,22.3a23.012,23.012,0,0,0,1.377-8.263" transform="translate(14.145 2.742)" fill="#f2c75c"/>
      <path id="Caminho_36" data-name="Caminho 36" d="M147.121,58.927c-5.729-18.261-7.34-30.849-9.241-40.888,24.156-.8,65.994,5.578,84.668,15.672-4.132,15.548-7.643,31.551-7.643,31.551s-11.155-6.335-67.784-6.335" transform="translate(52.022 6.778)" fill="#b3852d"/>
      <path id="Caminho_37" data-name="Caminho 37" d="M258.014,113.148a6.8,6.8,0,0,0,3.842,6.721,2.933,2.933,0,0,1,.592,4.655c-2.506,2.548-25.147,13.772-85.674,13.772S93.4,126.837,90.853,124.248a3.057,3.057,0,0,1,.73-4.793,7.147,7.147,0,0,0,3.966-6.335S116.8,124.3,176.664,124.3s81.349-11.155,81.349-11.155" transform="translate(33.964 42.665)" fill="#d6a529"/>
      <path id="Caminho_38" data-name="Caminho 38" d="M174.433,58.722C170.288,21.043,164.876,0,164.876,0,138.407,0,90.344,21.8,72.22,46.934c18.234,20.052,31.675,69.657,30.849,103.728,0,0,20.3,9.117,80.069,9.117,56.643,0,76.254-8.167,80.4-9.117-.317-32.5,8.263-52.594,17.531-69-26.166-12.7-51.107-21.938-106.634-22.944m-74.367,3.966c-2.121-5.178-4.93-11.238-1.212-15.755,2.231-2.754,9.9-5.688,15.424,4.7a57.483,57.483,0,0,1,6.376,19.432s-6.06,2.038-15.039,8.649c-2.575-8.346-3.663-12.395-5.509-17.022m34.319,75.152H116.978c-.633-7.258-2.259-18.289-3.223-23.715-3.181-17.9,17.435-22.035,19.528-3.87a255.986,255.986,0,0,1,1.129,27.543m-3.278-91.554c-1.873-7.01-.964-12.877,5.013-15.066,7.643-2.754,12.518,2.286,14.639,9.076s2.906,15.369,3.415,21A71.076,71.076,0,0,0,135.46,65.7c-1.295-5.674-3.14-15.052-4.324-19.459m44.069,91.6H152.66s-.578-25.684-.909-32.68c-.193-3.829,1.46-13.111,11.637-13.111,9.819,0,12.05,7.271,11.926,16.719-.069,4.669-.083,29.072-.083,29.072m39.662-32.68c-.331,7-.909,32.68-.909,32.68H191.414s0-24.4-.083-29.072c-.124-9.447,2.107-16.719,11.926-16.719,10.177,0,11.83,9.282,11.637,13.111m38,8.965c-.964,5.426-2.6,16.457-3.223,23.715H232.233a255.994,255.994,0,0,1,1.129-27.543c2.093-18.206,22.71-14.006,19.528,3.87" transform="translate(27.257 0)" fill="#d6a529"/>
      <path id="Caminho_39" data-name="Caminho 39" d="M363.426,148.518c1.777-.482,2.272-1.653,2.148-2.589a2.176,2.176,0,0,0-2.135-1.914H339.656v62.152c0,9.792-3.718,13.964-12.395,13.964-9.64,0-14.612-3.457-14.612-22.393V156.423a8.167,8.167,0,0,1,6.2-7.974c1.377-.372,2.176-1.226,2.176-2.3a2.19,2.19,0,0,0-.84-1.694l.441-.5H239.37a2.176,2.176,0,0,0-2.135,1.9c-.124.936.372,2.107,2.162,2.589a8.153,8.153,0,0,1,6.183,7.974v.565h17.724v63.35a8.18,8.18,0,0,1-6.087,7.946,7.175,7.175,0,0,1-3.057,0h0c-3.746-.992-4.944-3.994-6.225-8.125L225.585,147.21a4.132,4.132,0,0,0-3.925-2.933,3.608,3.608,0,0,0-3.622,2.685l-20.4,73.431c-1.267,4.132-2.451,7.051-6.2,8.043a7.216,7.216,0,0,1-3.25,0,8.167,8.167,0,0,1-6-7.7v-64.19a8.153,8.153,0,0,1,6.17-7.795c1.777-.482,2.286-1.653,2.162-2.589a2.176,2.176,0,0,0-2.135-1.887h-19.28v48.077l-21.732-47.746-.151-.331H49.252L36.706,189.9,22.935,144.277H2.153A2.176,2.176,0,0,0,0,146.163c-.124.936.386,2.107,2.162,2.589,3.746.992,4.944,3.994,6.225,8.125l22.269,73.1a4.132,4.132,0,0,0,3.925,2.933h.069a3.691,3.691,0,0,0,3.553-2.754l20.41-73.431c1.281-4.132,2.465-7.12,6.183-8.043a6.707,6.707,0,0,1,3.4,0,8.263,8.263,0,0,1,6.018,7.795v63.956a8.263,8.263,0,0,1-6.183,7.877c-1.777.482-2.286,1.653-2.162,2.589a2.162,2.162,0,0,0,2.135,1.887h79.463V184.821l21.732,47.76.151.331h37.638l4.875-17.752h16.085l5.357,17.752h53.806a2.176,2.176,0,0,0,2.135-1.887c.11-.936-.386-2.107-2.162-2.589a8.18,8.18,0,0,1-6.2-7.96V157.057h18.674v46.824c0,18.936,9.971,28.921,28.838,28.921s28.246-8.483,28.8-25.918V156.148a8.167,8.167,0,0,1,6.17-7.629M224.043,202.145h-8.566l4.132-14.86Zm-98.715-53.9.317.523a5.866,5.866,0,0,1,2.754,0,8.167,8.167,0,0,1,6.087,7.919v63.763h0a8.263,8.263,0,0,1-6.046,7.946l.151.551-.3-.523a5.757,5.757,0,0,1-2.754,0,8.167,8.167,0,0,1-6.073-7.946v-.551H91.917V197.367h22.035V184.352H91.917V157.291H119.46v-.551a8.18,8.18,0,0,1,6.032-7.932ZM420.275,213.92c-2.148,12.395-12.615,18.606-31.992,18.922H365.092a2.176,2.176,0,0,1-2.148-1.9c-.11-.936.386-2.107,2.162-2.575a8.18,8.18,0,0,0,6.2-7.988v-.565h17.063c3.223-.069,11.747-.262,15.328-5.1a9.489,9.489,0,0,0,2.066-8.125c-1.212-5.137-7.106-10.329-18.027-15.879l-1.57-.8c-9.31-4.7-19.859-10.012-21.677-23.412a18.647,18.647,0,0,1,4.311-14.433c4.462-5.123,11.651-7.767,21.374-7.85l.413-.138h21.966a2.162,2.162,0,0,1,2.135,1.9c.124.936-.372,2.107-2.162,2.575a8.167,8.167,0,0,0-6.183,7.988v.551H390.583c-5.605,0-9.255,1.956-10.04,5.371-1.033,4.572,3,10.329,9.392,13.4,31.5,15.149,32.336,26.607,30.3,38.01" transform="translate(0.013 54.297)" fill="#b3852d"/>
      <path id="Caminho_40" data-name="Caminho 40" d="M58.374,231.268v12.684H74.831v7.726H58.374v12.959H79.527v7.988H48.1V223.28H79.527v7.988Z" transform="translate(18.159 84.214)" fill="#d6a529"/>
      <path id="Caminho_41" data-name="Caminho 41" d="M120.7,247.932a26.456,26.456,0,0,1-1.818,9.943,22.682,22.682,0,0,1-5.137,7.809,23.673,23.673,0,0,1-7.974,5.109,28.275,28.275,0,0,1-10.343,1.832H76.45V223.281H95.427a27.984,27.984,0,0,1,10.343,1.832,23.494,23.494,0,0,1,7.974,5.123,22.751,22.751,0,0,1,5.137,7.795,26.331,26.331,0,0,1,1.818,9.9m-10.48,0a21.938,21.938,0,0,0-1.019-6.968,14.694,14.694,0,0,0-2.92-5.247,12.9,12.9,0,0,0-4.641-3.291,15.851,15.851,0,0,0-6.211-1.157h-8.7v33.369h8.7a16.113,16.113,0,0,0,6.211-1.143,12.394,12.394,0,0,0,4.641-3.305,14.694,14.694,0,0,0,2.92-5.247,22.145,22.145,0,0,0,1.019-7.01" transform="translate(28.852 84.213)" fill="#d6a529"/>
      <rect id="Retângulo_25" data-name="Retângulo 25" width="10.274" height="49.344" transform="translate(157.07 307.48)" fill="#d6a529"/>
      <path id="Caminho_42" data-name="Caminho 42" d="M165.074,231.505H150.641v41.122H140.409V231.505H125.99V223.27h39.084Z" transform="translate(47.537 84.21)" fill="#d6a529"/>
      <path id="Caminho_43" data-name="Caminho 43" d="M206.266,248.081a27.214,27.214,0,0,1-1.818,10.04A23.205,23.205,0,0,1,191.337,271.4a28.92,28.92,0,0,1-20.658,0,24,24,0,0,1-8-5.288,23.536,23.536,0,0,1-5.151-7.988,28.562,28.562,0,0,1,0-20.052,23.411,23.411,0,0,1,5.151-7.974,24,24,0,0,1,8-5.288,28.673,28.673,0,0,1,20.658,0,23.288,23.288,0,0,1,13.111,13.29,26.978,26.978,0,0,1,1.818,9.984m-10.439,0a22.185,22.185,0,0,0-1.019-6.955,14.6,14.6,0,0,0-2.947-5.233,12.5,12.5,0,0,0-4.655-3.305,17.49,17.49,0,0,0-12.395,0,12.56,12.56,0,0,0-4.669,3.305,14.8,14.8,0,0,0-2.947,5.233,24.335,24.335,0,0,0,0,13.937,14.8,14.8,0,0,0,2.947,5.233,12.808,12.808,0,0,0,4.669,3.278,17.49,17.49,0,0,0,12.395,0,12.752,12.752,0,0,0,4.655-3.278,14.6,14.6,0,0,0,2.947-5.233,22.24,22.24,0,0,0,1.019-6.982" transform="translate(58.747 84.064)" fill="#d6a529"/>
      <path id="Caminho_44" data-name="Caminho 44" d="M237.209,272.629H228a4.007,4.007,0,0,1-3.746-1.969l-9.392-15.149a3.322,3.322,0,0,0-3.333-1.708h-3.47v18.812h-10.2V223.272h15.521a31.813,31.813,0,0,1,8.841,1.074,17.09,17.09,0,0,1,6.018,2.975,11.417,11.417,0,0,1,3.429,4.545,15,15,0,0,1,1.088,5.8,15.508,15.508,0,0,1-.689,4.641,13.771,13.771,0,0,1-2.024,3.994,14.46,14.46,0,0,1-3.264,3.209,17.543,17.543,0,0,1-4.421,2.245,9.891,9.891,0,0,1,1.832,1.377,9.062,9.062,0,0,1,1.529,1.818ZM213.3,246.642a12.821,12.821,0,0,0,4.283-.633,7.918,7.918,0,0,0,2.961-1.735,6.61,6.61,0,0,0,1.694-2.589,9.366,9.366,0,0,0,.551-3.278,6.693,6.693,0,0,0-2.341-5.44,10.866,10.866,0,0,0-7.079-1.928h-5.316v15.6Z" transform="translate(74.64 84.209)" fill="#d6a529"/>
      <path id="Caminho_45" data-name="Caminho 45" d="M274.7,272.628h-7.932a3.4,3.4,0,0,1-2.148-.634,3.594,3.594,0,0,1-1.239-1.611l-3.346-9.42H240.378l-3.278,9.42a3.884,3.884,0,0,1-1.184,1.542,3.305,3.305,0,0,1-2.148.7H225.78l19.28-49.358H255.5Zm-17.146-18.743-5.343-15.149c-.317-.8-.647-1.721-.992-2.754s-.689-2.217-1.005-3.47c-.317,1.267-.661,2.451-1.005,3.526s-.689,2.011-1.005,2.754l-5.3,15.025Z" transform="translate(85.175 84.21)" fill="#d6a529"/>
    </g>
  </g>
</svg>
