<svg xmlns="http://www.w3.org/2000/svg" width="490.02" height="334.368" viewBox="0 0 490.02 334.368">
  <g id="Layer_2" data-name="Layer 2" transform="translate(0.013)">
    <g id="Layer_1" data-name="Layer 1" transform="translate(-0.013 0)">
      <path id="Caminho_17" data-name="Caminho 17" d="M112.858,159.377a98.7,98.7,0,0,1-49.558-42.6C49.752,92.872,47.924,64.75,57.816,36.356a82.313,82.313,0,0,1,5.852-14.045,1.937,1.937,0,0,1,3.447,1.764,133.548,133.548,0,0,0-5.371,12.682C55.331,56.3,54.5,82.483,65.608,106.324c8.369,17.989,22.574,31.826,41.558,41.3,4.682,2.325,8.016,7.327,5.692,11.752m202.112,0a98.7,98.7,0,0,0,49.558-42.6c13.564-23.905,15.376-52.027,5.483-80.422a81.034,81.034,0,0,0-5.852-14.045,1.94,1.94,0,0,0-3.447,1.764,133.549,133.549,0,0,1,5.371,12.682c6.413,19.544,7.247,45.726-3.848,69.567-8.385,17.989-22.526,31.954-41.574,41.3-1.283.625-7.183,4.617-5.692,11.752" transform="translate(31.123 12.85)" fill="#d6a529"/>
      <path id="Caminho_18" data-name="Caminho 18" d="M346.957,95.621c4.569-13.5-7.263-28.651-7.263-28.651s-19.753,26.422.545,40.74a39.216,39.216,0,0,0,6.718-12.089m6.638,17.973c12.1,21.709,40.467,4.81,40.467,4.81s-13.82-13.388-27.721-10.261a39.345,39.345,0,0,0-12.826,5.4M332.671,131.07c9.892,27.465,40.083,7.455,40.083,7.455s-12.458-17.139-26.727-13.756a38.9,38.9,0,0,0-13.339,6.3M71.205,108.191C57.3,104.984,43.5,118.452,43.5,118.452s28.362,16.851,40.451-4.81a39.345,39.345,0,0,0-12.826-5.4m20.314,16.626c-14.269-3.383-26.727,13.756-26.727,13.756s30.174,20.009,40.082-7.455a38.719,38.719,0,0,0-13.339-6.3m5.8-17.107c20.362-14.366.593-40.74.593-40.74s-11.864,15.1-7.263,28.6a39.425,39.425,0,0,0,6.734,12.089" transform="translate(26.264 40.403)" fill="#b3852d"/>
      <path id="Caminho_19" data-name="Caminho 19" d="M367.211,85.061c0-11.688-13.163-20.346-13.163-20.346s-8.369,25.653,11.127,31.5A32.532,32.532,0,0,0,367.211,85m7.68-25.877c-1.283-10.037-14.911-14.51-14.911-14.51s-5.195,24.017,14.173,24.675a26.727,26.727,0,0,0,.738-10.037m5.547,35.4c18.454,8.514,29.148-16.306,29.148-16.306s-15.584-2.2-23.312,6.574a32.338,32.338,0,0,0-5.836,9.732m-7.327,15.6c14.43,17.043,33.878-4.185,33.878-4.185s-14.077-9.155-24.691-3.4a32.4,32.4,0,0,0-9.187,7.584m14.734-37.116c18.454,6.109,21.741-18.2,21.741-18.2s-14.333-.481-18.983,8.5a27.256,27.256,0,0,0-2.758,9.62M80.893,96.22C100.374,90.4,92,64.715,92,64.715S78.857,73.373,78.857,85.061a32.531,32.531,0,0,0,2.036,11.223m-8.995-27c19.432-.593,14.189-24.547,14.189-24.547S72.46,49.211,71.161,59.248A27.128,27.128,0,0,0,71.9,69.285M59.778,84.917c-7.728-8.77-23.312-6.574-23.312-6.574S47.16,103.163,65.63,94.649a32.611,32.611,0,0,0-5.852-9.732m3.992,17.749c-10.63-5.756-24.691,3.4-24.691,3.4s19.4,21.228,33.862,4.185a32.466,32.466,0,0,0-9.171-7.584M55.433,63.433c-4.65-8.978-18.983-8.5-18.983-8.5s3.287,24.306,21.725,18.2a26.823,26.823,0,0,0-2.758-9.62" transform="translate(22.011 26.913)" fill="#d6a529"/>
      <path id="Caminho_20" data-name="Caminho 20" d="M78.41,36.194c13.243,6.493,18.454-11.448,18.454-11.448s-10.79-1.876-15.247,4.441a20.971,20.971,0,0,0-3.207,7.006M67.3,29.78c1.074-7.648-8.016-13.756-8.016-13.756s-8.61,16.626,5.451,21.083a20.843,20.843,0,0,0,2.549-7.263m13.66-6.83C86.587,17.724,83.38,7.286,83.38,7.286S66.257,14.854,74.4,27.055a20.394,20.394,0,0,0,6.541-4.04M362.386,27.68c-4.682-6.141-15.392-3.992-15.392-3.992s5.708,17.781,18.759,10.9a20.6,20.6,0,0,0-3.367-6.91m17.636,9.411c14.061-4.457,5.435-21.019,5.435-21.019s-9.043,6.109-8.017,13.756a20.843,20.843,0,0,0,2.549,7.263m-9.62-10.053c8.145-12.281-8.962-19.769-8.962-19.769S358.2,17.707,363.829,23a20.394,20.394,0,0,0,6.541,4.04M386.4,55.706c17.636-3.7,10.518-25.957,10.518-25.957s-11.993,6.509-12.185,16.386a26.792,26.792,0,0,0,1.6,9.62m2.5,19.24c19.24,2.966,18.438-21.548,18.438-21.548s-14.221,1.892-17.332,11.528a27.256,27.256,0,0,0-1.106,10.021m-16.8-21.661c-3.319-9.315-16.754-11.672-16.754-11.672s.3,23.376,18.213,21.276a26.727,26.727,0,0,0-1.459-9.62m-300.7,9.636C89.264,65.1,89.633,41.725,89.633,41.725S76.117,44.082,72.8,53.333a26.727,26.727,0,0,0-1.459,9.62m-16.562,2c-3.11-9.62-17.316-11.528-17.316-11.528s-.738,24.514,18.5,21.548a26.839,26.839,0,0,0-1.106-10.021M60.132,46.15c-.257-9.876-12.185-16.386-12.185-16.386S40.732,52.018,58.384,55.722a26.791,26.791,0,0,0,1.6-9.62" transform="translate(22.619 4.386)" fill="#f2c75c"/>
      <path id="Caminho_21" data-name="Caminho 21" d="M148.638,65.651c-6.67-21.26-8.546-35.914-10.758-47.6C166,17.12,214.71,24.543,236.451,36.3c-4.81,18.1-8.9,36.732-8.9,36.732s-12.987-7.375-78.914-7.375" transform="translate(83.204 10.842)" fill="#b3852d"/>
      <path id="Caminho_22" data-name="Caminho 22" d="M285.6,113.152a7.92,7.92,0,0,0,4.473,7.824,3.415,3.415,0,0,1,.689,5.419c-2.918,2.966-29.276,16.033-99.741,16.033s-97.064-13.339-100.03-16.354a3.559,3.559,0,0,1,.85-5.579,8.321,8.321,0,0,0,4.618-7.375s24.739,13.019,94.434,13.019S285.6,113.152,285.6,113.152" transform="translate(54.319 68.245)" fill="#d6a529"/>
      <path id="Caminho_23" data-name="Caminho 23" d="M191.217,68.365C186.391,24.5,180.09,0,180.09,0,149.275,0,93.319,25.38,72.22,54.64,93.448,77.984,109.1,135.735,108.134,175.4c0,0,23.633,10.614,93.216,10.614,65.944,0,88.775-9.508,93.6-10.614-.369-37.838,9.62-61.23,20.41-80.325-30.463-14.782-59.5-25.541-124.143-26.711m-86.578,4.618C102.17,66.954,98.9,59.9,103.228,54.64c2.6-3.207,11.528-6.622,17.957,5.467a66.921,66.921,0,0,1,7.423,22.623S121.554,85.1,111.1,92.8c-3-9.716-4.265-14.43-6.413-19.817m39.954,87.492H124.327c-.738-8.449-2.629-21.292-3.752-27.609-3.7-20.843,20.3-25.653,22.735-4.505a298.015,298.015,0,0,1,1.315,32.066M140.809,53.839c-2.18-8.161-1.122-14.991,5.836-17.54,8.9-3.207,14.574,2.661,17.043,10.566s3.383,17.893,3.976,24.45a82.746,82.746,0,0,0-21.821,5.179c-1.507-6.606-3.656-17.524-5.034-22.655m51.306,106.635H165.869s-.673-29.9-1.058-38.046c-.224-4.457,1.7-15.263,13.548-15.263,11.432,0,14.029,8.465,13.885,19.464-.08,5.435-.1,33.846-.1,33.846m46.175-38.046c-.385,8.145-1.058,38.046-1.058,38.046H210.986s0-28.41-.1-33.846c-.144-11,2.453-19.464,13.885-19.464,11.848,0,13.772,10.806,13.548,15.263m44.235,10.437c-1.122,6.317-3.03,19.159-3.752,27.609h-20.3a298.032,298.032,0,0,1,1.315-32.066c2.437-21.2,26.438-16.306,22.735,4.505" transform="translate(43.591 0)" fill="#d6a529"/>
      <path id="Caminho_24" data-name="Caminho 24" d="M423.1,149.267c2.068-.561,2.645-1.924,2.5-3.014a2.533,2.533,0,0,0-2.485-2.229H395.43v72.357c0,11.4-4.329,16.257-14.43,16.257-11.223,0-17.011-4.024-17.011-26.07v-48.1a9.508,9.508,0,0,1,7.215-9.283c1.6-.433,2.533-1.427,2.533-2.678a2.549,2.549,0,0,0-.978-1.972l.513-.577H278.677a2.533,2.533,0,0,0-2.485,2.213c-.144,1.09.433,2.453,2.517,3.014a9.492,9.492,0,0,1,7.2,9.283v.657h20.634v73.752a9.524,9.524,0,0,1-7.087,9.251,8.353,8.353,0,0,1-3.559,0h0c-4.361-1.154-5.756-4.65-7.247-9.459l-26.022-84.927a4.81,4.81,0,0,0-4.569-3.415,4.2,4.2,0,0,0-4.217,3.126L230.1,232.943c-1.475,4.81-2.854,8.209-7.215,9.363a8.4,8.4,0,0,1-3.784,0,9.508,9.508,0,0,1-6.99-8.962v-74.73a9.492,9.492,0,0,1,7.183-9.075c2.068-.561,2.661-1.924,2.517-3.014a2.533,2.533,0,0,0-2.485-2.2H196.877V200.3l-25.3-55.586-.176-.385H57.342L42.736,197.446,26.7,144.329H2.509a2.533,2.533,0,0,0-2.5,2.2c-.144,1.09.449,2.453,2.517,3.014,4.361,1.154,5.756,4.65,7.247,9.459L35.7,244.1a4.81,4.81,0,0,0,4.569,3.415h.08a4.3,4.3,0,0,0,4.137-3.207l23.761-85.488c1.491-4.81,2.87-8.289,7.2-9.363a7.809,7.809,0,0,1,3.96,0,9.62,9.62,0,0,1,7.006,9.075v74.457a9.62,9.62,0,0,1-7.2,9.171c-2.068.561-2.661,1.924-2.517,3.014a2.517,2.517,0,0,0,2.485,2.2h92.51V191.53l25.3,55.6.176.385h43.818l5.676-20.667h18.727l6.237,20.667h62.641a2.533,2.533,0,0,0,2.485-2.2c.128-1.09-.449-2.453-2.517-3.014a9.524,9.524,0,0,1-7.215-9.267V159.207h21.741V213.72c0,22.045,11.608,33.669,33.573,33.669s32.884-9.876,33.525-30.174V158.149a9.508,9.508,0,0,1,7.183-8.882M260.833,211.7H250.86l4.81-17.3ZM145.908,148.946l.369.609a6.83,6.83,0,0,1,3.207,0,9.508,9.508,0,0,1,7.087,9.219v74.233h0a9.62,9.62,0,0,1-7.038,9.251l.176.641-.353-.609a6.7,6.7,0,0,1-3.207,0,9.507,9.507,0,0,1-7.071-9.251V232.4H107.012V206.136h25.653V190.985H107.012v-31.5h32.066v-.641A9.524,9.524,0,0,1,146.1,149.6Zm343.379,76.461c-2.5,14.43-14.686,21.661-37.245,22.029h-27a2.533,2.533,0,0,1-2.5-2.213c-.128-1.09.449-2.453,2.517-3a9.524,9.524,0,0,0,7.215-9.3v-.657h19.865c3.752-.08,13.676-.3,17.845-5.932a11.047,11.047,0,0,0,2.405-9.459c-1.411-5.98-8.273-12.025-20.987-18.486l-1.828-.93c-10.838-5.467-23.12-11.656-25.236-27.256a21.709,21.709,0,0,1,5.018-16.8c5.195-5.964,13.564-9.043,24.883-9.139l.481-.16h25.573a2.517,2.517,0,0,1,2.485,2.213c.144,1.09-.433,2.453-2.517,3a9.508,9.508,0,0,0-7.2,9.3v.641H454.72c-6.525,0-10.774,2.277-11.688,6.253-1.2,5.323,3.5,12.025,10.935,15.6,36.667,17.636,37.645,30.976,35.273,44.251" transform="translate(0.013 86.851)" fill="#b3852d"/>
    </g>
  </g>
</svg>
