<svg xmlns="http://www.w3.org/2000/svg" width="449" height="623" viewBox="0 0 449 623">
  <g id="Grupo_1" data-name="Grupo 1" transform="translate(-328 -2746.156)">
    <rect id="Ret창ngulo_23" data-name="Ret창ngulo 23" width="449" height="623" transform="translate(328 2746.156)" fill="#505050"/>
    <rect id="Ret창ngulo_22" data-name="Ret창ngulo 22" width="126" height="90" transform="translate(489 3114)"/>
    <path id="Icon_awesome-home" data-name="Icon awesome-home" d="M194.961,83.058,66.762,188.645V302.6a11.125,11.125,0,0,0,11.125,11.125l77.919-.2a11.125,11.125,0,0,0,11.07-11.125V235.851A11.125,11.125,0,0,1,178,224.726h44.5a11.125,11.125,0,0,1,11.125,11.125v66.5a11.125,11.125,0,0,0,11.125,11.16l77.891.216A11.125,11.125,0,0,0,333.771,302.6V188.569L205.6,83.058A8.476,8.476,0,0,0,194.961,83.058Zm202.5,76.766-58.13-47.916V15.6a8.344,8.344,0,0,0-8.344-8.344H292.05a8.344,8.344,0,0,0-8.344,8.344V66.086L221.453,14.867a33.376,33.376,0,0,0-42.415,0L3.027,159.824a8.344,8.344,0,0,0-1.113,11.751l17.731,21.555A8.344,8.344,0,0,0,31.4,194.264L194.961,59.55a8.476,8.476,0,0,1,10.639,0L369.163,194.264a8.344,8.344,0,0,0,11.751-1.113L398.645,171.6a8.344,8.344,0,0,0-1.182-11.772Z" transform="translate(352.001 2889.903)"/>
    <path id="Icon_awesome-book-reader" data-name="Icon awesome-book-reader" d="M64.838,17.683A17.683,17.683,0,1,0,47.155,35.366,17.683,17.683,0,0,0,64.838,17.683ZM43.027,44.411C32.1,37.72,14.4,35.882,5.489,35.376A5.1,5.1,0,0,0,0,40.366v41.04a5.066,5.066,0,0,0,4.879,4.983c8.042.422,24.313,1.967,35.558,7.631a2.564,2.564,0,0,0,3.772-2.186V46.522a2.451,2.451,0,0,0-1.183-2.111Zm45.794-9.035c-8.906.5-26.61,2.345-37.536,9.035A2.5,2.5,0,0,0,50.1,46.553V91.827a2.572,2.572,0,0,0,3.783,2.192c11.244-5.659,27.5-7.2,35.545-7.626a5.069,5.069,0,0,0,4.879-4.984V40.366A5.1,5.1,0,0,0,88.821,35.376Z" transform="translate(505 3059)" fill="#fff"/>
  </g>
</svg>
