<svg xmlns="http://www.w3.org/2000/svg" width="10.283" height="11.997" viewBox="0 0 10.283 11.997">
  <path id="Icon_metro-file-image" data-name="Icon metro-file-image" d="M10.827,3.4a1.558,1.558,0,0,1,.321.509,1.545,1.545,0,0,1,.134.589v7.712a.64.64,0,0,1-.643.643h-9A.64.64,0,0,1,1,12.211V1.5A.64.64,0,0,1,1.642.857h6A1.545,1.545,0,0,1,8.23.991a1.558,1.558,0,0,1,.509.321ZM7.855,1.767V4.285h2.517a.731.731,0,0,0-.147-.274l-2.1-2.1a.731.731,0,0,0-.274-.147ZM10.426,12V5.141H7.641A.64.64,0,0,1,7,4.5V1.714H1.857V12h8.569ZM9.569,9V11.14H2.714V9.854L4,8.569l.857.857L7.427,6.855ZM4,7.712A1.28,1.28,0,0,1,2.714,6.427,1.28,1.28,0,0,1,4,5.141,1.28,1.28,0,0,1,5.284,6.427,1.28,1.28,0,0,1,4,7.712Z" transform="translate(-1 -0.857)"/>
</svg>
