<svg xmlns="http://www.w3.org/2000/svg" width="21.407" height="21.407" viewBox="0 0 21.407 21.407">
  <path id="Lápis" d="M20.819,5.944,18.892,7.871a.5.5,0,0,1-.711,0L13.54,3.23a.5.5,0,0,1,0-.711L15.467.592a2.011,2.011,0,0,1,2.839,0L20.819,3.1A2,2,0,0,1,20.819,5.944ZM11.884,4.175.9,15.155l-.886,5.08A1,1,0,0,0,1.18,21.4l5.08-.891L17.24,9.527a.5.5,0,0,0,0-.711L12.6,4.175a.507.507,0,0,0-.715,0ZM5.19,14.214a.583.583,0,0,1,0-.828l6.439-6.439a.585.585,0,0,1,.828.828L6.018,14.214a.583.583,0,0,1-.828,0ZM3.68,17.731H5.687v1.518l-2.7.472-1.3-1.3.472-2.7H3.68Z" transform="translate(-0.002 -0.005)" fill="#309aac"/>
</svg>
