<svg xmlns="http://www.w3.org/2000/svg" width="30.848" height="19.28" viewBox="0 0 30.848 19.28">
  <path id="Icon_metro-eye" data-name="Icon metro-eye" d="M17.995,7.712a17.276,17.276,0,0,0-15.424,9.64,17.159,17.159,0,0,0,30.849,0,17.276,17.276,0,0,0-15.424-9.64ZM25.6,12.825a14.668,14.668,0,0,1,4.5,4.528,14.668,14.668,0,0,1-4.5,4.528,14.135,14.135,0,0,1-15.21,0,14.668,14.668,0,0,1-4.5-4.528,14.668,14.668,0,0,1,4.5-4.528c.118-.075.237-.148.357-.22a7.712,7.712,0,1,0,14.5,0q.18.107.357.22ZM17.995,14.46A2.892,2.892,0,1,1,15.1,11.568,2.892,2.892,0,0,1,17.995,14.46Z" transform="translate(-2.571 -7.712)"/>
</svg>
